<svg id="Layer_1" data-name="Layer 1" xmlns="http://www.w3.org/2000/svg" viewBox="0 0 283.46 198.19"><defs><style>.cls-1{fill:#dcedfa;}.cls-2{fill:#ef4268;}.cls-3{fill:#f16e91;}.cls-4{fill:#285173;}</style></defs><title>orbion_0</title><path class="cls-1" d="M212.27,9a50,50,0,0,0-10,7.55,99.11,99.11,0,0,1,48,83.11A49.55,49.55,0,1,0,212.27,9Z" transform="translate(-3.13 -2.35)"/><path class="cls-2" d="M194.14,76.67a49.57,49.57,0,0,1,8.18-60.13,99.09,99.09,0,1,0,48,83.11A49.57,49.57,0,0,1,194.14,76.67Z" transform="translate(-3.13 -2.35)"/><path class="cls-3" d="M202.32,16.54a49.56,49.56,0,0,0,48,83.11,99.11,99.11,0,0,0-48-83.11Z" transform="translate(-3.13 -2.35)"/><circle class="cls-4" cx="24.78" cy="170.3" r="24.77"/></svg>