<?xml version="1.0" standalone="no"?>
<!DOCTYPE svg PUBLIC "-//W3C//DTD SVG 20010904//EN"
 "http://www.w3.org/TR/2001/REC-SVG-20010904/DTD/svg10.dtd">
<svg version="1.0" xmlns="http://www.w3.org/2000/svg"
 width="1132.000000pt" height="1132.000000pt" viewBox="0 0 1132.000000 1132.000000"
 preserveAspectRatio="xMidYMid meet">
<metadata>
Created by potrace 1.14, written by Peter Selinger 2001-2017
</metadata>
<g transform="translate(0.000000,1132.000000) scale(0.100000,-0.100000)"
fill="#000000" stroke="none">
<path d="M5604 9601 c-3 -3 -15 -6 -27 -7 -47 -3 -163 -15 -182 -19 -11 -2
-42 -7 -69 -10 -27 -3 -85 -13 -130 -22 -44 -9 -90 -17 -101 -19 -11 -1 -20
-3 -20 -4 0 -1 -8 -3 -19 -5 -15 -3 -54 -12 -126 -30 -37 -10 -73 -20 -111
-32 -25 -8 -52 -16 -60 -17 -8 -2 -21 -6 -29 -9 -14 -5 -89 -30 -100 -32 -11
-3 -123 -45 -175 -66 -16 -7 -32 -13 -35 -13 -3 -1 -41 -17 -85 -35 -165 -72
-509 -257 -561 -303 -11 -10 -24 -18 -28 -18 -10 0 -210 -142 -214 -152 -2 -4
-10 -8 -17 -8 -7 0 -15 -4 -17 -8 -1 -5 -41 -40 -88 -78 -123 -100 -131 -106
-274 -249 -138 -136 -182 -184 -256 -275 -25 -30 -48 -57 -51 -60 -3 -3 -34
-43 -70 -90 -35 -47 -67 -86 -71 -88 -5 -2 -8 -8 -8 -13 0 -5 -24 -44 -53 -86
-67 -98 -170 -269 -167 -279 1 -4 -2 -10 -7 -13 -10 -6 -15 -16 -82 -151 -47
-94 -60 -123 -89 -190 -11 -25 -27 -61 -36 -82 -9 -20 -16 -39 -16 -43 0 -4
-6 -21 -14 -38 -19 -42 -92 -260 -106 -317 -6 -25 -14 -52 -17 -60 -3 -8 -7
-22 -8 -30 -2 -8 -15 -64 -29 -125 -14 -60 -28 -126 -31 -145 -3 -19 -8 -51
-12 -70 -4 -19 -8 -44 -9 -55 -1 -11 -3 -20 -4 -20 -1 0 -3 -18 -5 -40 -3 -22
-7 -58 -9 -80 -13 -108 -20 -197 -20 -262 -1 -40 -3 -73 -6 -73 -6 0 -3 -209
6 -355 3 -60 7 -127 8 -147 0 -21 3 -38 6 -38 3 0 5 -12 5 -27 1 -42 12 -128
29 -218 9 -44 18 -96 21 -115 3 -19 8 -42 10 -50 2 -8 7 -26 9 -40 16 -75 33
-145 36 -145 1 0 3 -8 5 -18 4 -22 34 -124 46 -157 5 -14 11 -34 13 -45 4 -18
25 -77 46 -130 4 -11 20 -51 35 -90 41 -106 77 -187 135 -305 64 -127 85 -165
95 -172 6 -4 7 -8 3 -8 -12 0 196 -331 236 -377 18 -21 30 -36 60 -80 16 -24
33 -43 37 -43 5 0 9 -4 9 -10 0 -10 4 -15 110 -139 75 -87 299 -314 380 -384
30 -27 64 -56 75 -65 11 -10 49 -40 85 -67 36 -28 67 -52 70 -55 10 -11 148
-108 220 -154 41 -27 91 -59 111 -72 19 -13 40 -24 46 -24 6 0 13 -3 15 -7 4
-9 50 -35 168 -95 47 -24 87 -46 88 -50 2 -5 9 -8 16 -8 7 0 45 -16 85 -35 39
-19 74 -35 77 -35 7 0 70 -27 96 -41 10 -5 25 -9 33 -9 8 0 15 -5 15 -12 0 -6
3 -9 6 -6 3 4 21 0 40 -8 19 -8 34 -12 34 -9 0 4 12 -1 28 -9 60 -33 458 -141
597 -162 11 -2 34 -6 50 -9 17 -4 44 -8 60 -10 17 -2 53 -6 80 -10 59 -8 102
-13 210 -23 100 -9 547 -8 635 1 36 4 88 9 115 12 28 3 64 8 80 10 128 17 160
22 160 25 0 1 16 4 35 6 64 9 85 13 85 14 0 2 34 10 60 14 11 2 22 5 25 6 3 1
10 3 15 4 54 8 394 109 460 137 17 7 32 13 35 14 3 1 18 7 33 13 16 7 32 12
36 12 4 0 21 6 37 14 77 37 107 49 120 49 8 0 14 3 14 7 0 4 24 17 53 29 28
12 52 21 52 20 0 -1 19 10 42 24 24 15 49 27 57 27 8 0 17 4 20 9 3 4 56 36
118 71 61 35 117 67 123 71 26 22 118 79 126 79 5 0 9 5 9 10 0 6 5 10 10 10
6 0 18 7 28 15 9 9 46 37 82 63 36 25 67 49 70 52 3 3 25 20 50 39 25 19 54
42 65 52 11 11 45 40 75 66 62 53 271 262 340 338 47 53 82 94 139 165 19 23
41 49 49 56 7 8 10 14 5 14 -4 0 -3 4 2 8 6 4 22 23 35 42 14 19 32 44 42 54
10 11 18 23 18 27 0 4 6 14 13 21 6 8 17 23 24 33 7 11 43 67 79 125 75 118
254 458 254 483 0 10 5 17 10 17 6 0 10 5 10 12 0 6 17 55 39 107 36 91 47
120 50 131 0 3 14 42 31 88 16 45 27 82 25 82 -3 0 -1 9 5 21 6 11 13 28 15
37 4 17 22 85 30 112 11 41 55 239 60 270 3 20 8 47 11 60 5 26 12 72 19 130
3 19 7 49 9 65 3 17 8 71 11 120 3 50 8 105 10 122 3 18 5 93 6 167 l1 134 62
18 c230 69 480 206 681 374 101 85 242 230 287 295 12 19 26 35 31 35 4 0 7 6
7 13 0 7 11 24 25 39 14 15 25 32 25 37 0 5 6 16 13 23 27 28 131 218 119 218
-4 0 -2 4 3 8 10 7 21 28 42 82 22 53 30 75 32 82 1 4 9 27 17 50 9 24 17 48
18 53 1 6 10 35 18 65 45 151 63 300 63 515 0 200 -10 289 -51 463 -21 88 -55
195 -83 267 -40 100 -166 335 -183 343 -5 2 -8 8 -8 13 0 11 -69 106 -130 179
-53 64 -228 240 -238 240 -4 0 -23 15 -42 33 -42 39 -214 157 -229 157 -6 0
-11 4 -11 9 0 5 -11 12 -25 15 -14 4 -25 11 -25 16 0 6 -6 10 -12 10 -7 0 -44
16 -81 35 -38 19 -75 35 -83 35 -8 0 -14 4 -14 8 0 5 -6 9 -12 10 -12 1 -117
35 -148 49 -8 3 -19 7 -25 8 -5 2 -37 10 -70 19 -33 9 -71 19 -85 22 -14 2
-34 6 -46 9 -22 5 -59 11 -134 21 -25 4 -135 7 -245 7 -151 1 -223 -3 -295
-17 -52 -10 -104 -19 -115 -21 -11 -2 -56 -13 -100 -25 -44 -12 -84 -23 -90
-24 -5 -2 -21 -7 -35 -13 -14 -6 -50 -20 -81 -31 -105 -39 -290 -136 -394
-207 -55 -37 -150 -109 -175 -132 -88 -80 -104 -93 -109 -85 -3 5 -31 22 -61
38 -30 16 -57 32 -60 35 -10 12 -251 129 -265 129 -8 0 -15 5 -15 10 0 6 -8
10 -18 10 -10 0 -22 4 -28 8 -9 9 -166 71 -289 115 -173 62 -464 136 -635 162
-14 2 -38 6 -55 9 -92 14 -142 20 -285 33 -78 7 -619 11 -626 4z"/>
<path d="M999 3806 c-2 -2 -42 -7 -89 -10 -47 -3 -94 -8 -105 -11 -86 -20
-116 -30 -198 -62 -50 -20 -94 -39 -97 -43 -3 -3 -34 -24 -70 -47 -79 -51
-243 -208 -258 -246 -1 -4 -17 -31 -35 -59 -37 -59 -86 -160 -90 -186 -1 -9
-5 -21 -8 -27 -10 -17 -27 -91 -33 -141 -1 -11 -5 -24 -8 -30 -7 -10 -2 -265
6 -304 31 -156 100 -311 196 -435 34 -44 148 -154 200 -193 68 -50 174 -104
265 -135 39 -13 73 -24 78 -25 4 0 31 -6 61 -12 93 -19 263 -17 377 5 120 23
292 100 394 178 46 34 195 185 195 196 0 4 11 20 24 35 55 65 130 243 157 376
15 70 18 254 6 335 -46 315 -260 601 -552 739 -129 61 -226 87 -340 89 -33 1
-63 5 -66 10 -3 4 -7 5 -10 3z"/>
</g>
</svg>
